#Comment line ignore any data following # character 
#Hierarchical Translation and Rotation (.htr) file 
[Header]	
#Header keywords are followed by a single value 
FileType HTR		#Single word string
DataType HTRS		#Translation followed by rotation and scale data
FileVersion 1		#integer
NumSegments 84		#integer
NumFrames 2		#integer
DataFrameRate 30		#integer, data frame rate in this file
EulerRotationOrder ZYX
CalibrationUnits mm
RotationUnits Degrees
GlobalAxisofGravity Y
BoneLengthAxis Y
ScaleFactor 1.00
[SegmentNames&Hierarchy]
#CHILD	PARENT
MASTER GLOBAL
root MASTER
chest root
L_mid_tent01 root
R_mid_tent01 root
spine01 root
Bip01_Neck chest
L_humerus chest
R_humerus chest
weapon_bone chest
Bip01_Head Bip01_Neck
eye_left_bone Bip01_Head
eye_right_bone Bip01_Head
L_forearm L_humerus
L_front_hand L_forearm
L_weapon_bone L_forearm
L_front_hand01_01 L_front_hand
L_front_hand02_01 L_front_hand
L_front_hand03_01 L_front_hand
L_front_hand01_02 L_front_hand01_01
L_front_hand02_02 L_front_hand02_01
L_front_hand03_02 L_front_hand03_01
R_forearm R_humerus
R_front_hand R_forearm
R_weapon_bone R_forearm
R_front_hand01_01 R_front_hand
R_front_hand02_01 R_front_hand
R_front_hand03_01 R_front_hand
R_front_hand01_02 R_front_hand01_01
R_front_hand02_02 R_front_hand02_01
R_front_hand03_02 R_front_hand03_01
null_rope01_connect L_mid_tent01
Rope1_Seg01 null_rope01_connect
Rope1_Seg02 Rope1_Seg01
Rope1_Seg03 Rope1_Seg02
Rope1_Seg04 Rope1_Seg03
Rope1_Seg05 Rope1_Seg04
Rope1_Seg06 Rope1_Seg05
Rope1_Seg07 Rope1_Seg06
Rope1_Seg09 Rope1_Seg07
L_mid_hand01 Rope1_Seg09
L_mid_hand02 Rope1_Seg09
L_mid_hand03 Rope1_Seg09
null_rope02_connect R_mid_tent01
Rope2_Seg01 null_rope02_connect
Rope2_Seg02 Rope2_Seg01
Rope2_Seg03 Rope2_Seg02
Rope2_Seg04 Rope2_Seg03
Rope2_Seg05 Rope2_Seg04
Rope2_Seg06 Rope2_Seg05
Rope2_Seg07 Rope2_Seg06
Rope2_Seg09 Rope2_Seg07
R_mid_hand01 Rope2_Seg09
R_mid_hand02 Rope2_Seg09
R_mid_hand03 Rope2_Seg09
spine02 spine01
spine03 spine02
pelvis spine03
null_rope03_connect pelvis
null_rope04_connect pelvis
Rope3_Seg01 null_rope03_connect
Rope3_Seg02 Rope3_Seg01
Rope3_Seg03 Rope3_Seg02
Rope3_Seg04 Rope3_Seg03
Rope3_Seg05 Rope3_Seg04
Rope3_Seg06 Rope3_Seg05
Rope3_Seg07 Rope3_Seg06
Rope3_Seg08 Rope3_Seg07
Rope3_Seg09 Rope3_Seg08
R_rear_hand01 Rope3_Seg09
R_rear_hand02 Rope3_Seg09
R_rear_hand03 Rope3_Seg09
Rope4_Seg01 null_rope04_connect
Rope4_Seg02 Rope4_Seg01
Rope4_Seg03 Rope4_Seg02
Rope4_Seg04 Rope4_Seg03
Rope4_Seg05 Rope4_Seg04
Rope4_Seg06 Rope4_Seg05
Rope4_Seg07 Rope4_Seg06
Rope4_Seg08 Rope4_Seg07
Rope4_Seg09 Rope4_Seg08
L_rear_hand01 Rope4_Seg09
L_rear_hand02 Rope4_Seg09
L_rear_hand03 Rope4_Seg09
[BasePosition]
#SegmentName Tx, Ty, Tz, Rx, Ry, Rz, BoneLength
MASTER 0.000000 0.000000 0.000000 -90.000000 0.000000 0.000000 10.000000 
root 0.000000 0.000000 0.000000 0.000000 0.000000 0.000000 10.000000 
chest 0.000000 0.000000 0.000000 0.000000 0.000000 0.000000 10.000000 
L_mid_tent01 0.000000 0.000000 0.000000 0.000000 0.000000 0.000000 10.000000 
R_mid_tent01 0.000000 0.000000 0.000000 0.000000 0.000000 0.000000 10.000000 
spine01 0.000000 0.000000 0.000000 0.000000 0.000000 0.000000 10.000000 
Bip01_Neck 0.000000 0.000000 0.000000 0.000000 0.000000 0.000000 10.000000 
L_humerus 0.000000 0.000000 0.000000 0.000000 0.000000 0.000000 10.000000 
R_humerus 0.000000 0.000000 0.000000 0.000000 0.000000 0.000000 10.000000 
weapon_bone 0.000000 0.000000 0.000000 0.000000 0.000000 0.000000 10.000000 
Bip01_Head 0.000000 0.000000 0.000000 0.000000 0.000000 0.000000 10.000000 
eye_left_bone 0.000000 0.000000 0.000000 0.000000 0.000000 0.000000 10.000000 
eye_right_bone 0.000000 0.000000 0.000000 0.000000 0.000000 0.000000 10.000000 
L_forearm 0.000000 0.000000 0.000000 0.000000 0.000000 0.000000 10.000000 
L_front_hand 0.000000 0.000000 0.000000 0.000000 0.000000 0.000000 10.000000 
L_weapon_bone 0.000000 0.000000 0.000000 0.000000 0.000000 0.000000 10.000000 
L_front_hand01_01 0.000000 0.000000 0.000000 0.000000 0.000000 0.000000 10.000000 
L_front_hand02_01 0.000000 0.000000 0.000000 0.000000 0.000000 0.000000 10.000000 
L_front_hand03_01 0.000000 0.000000 0.000000 0.000000 0.000000 0.000000 10.000000 
L_front_hand01_02 0.000000 0.000000 0.000000 0.000000 0.000000 0.000000 10.000000 
L_front_hand02_02 0.000000 0.000000 0.000000 0.000000 0.000000 0.000000 10.000000 
L_front_hand03_02 0.000000 0.000000 0.000000 0.000000 0.000000 0.000000 10.000000 
R_forearm 0.000000 0.000000 0.000000 0.000000 0.000000 0.000000 10.000000 
R_front_hand 0.000000 0.000000 0.000000 0.000000 0.000000 0.000000 10.000000 
R_weapon_bone 0.000000 0.000000 0.000000 0.000000 0.000000 0.000000 10.000000 
R_front_hand01_01 0.000000 0.000000 0.000000 0.000000 0.000000 0.000000 10.000000 
R_front_hand02_01 0.000000 0.000000 0.000000 0.000000 0.000000 0.000000 10.000000 
R_front_hand03_01 0.000000 0.000000 0.000000 0.000000 0.000000 0.000000 10.000000 
R_front_hand01_02 0.000000 0.000000 0.000000 0.000000 0.000000 0.000000 10.000000 
R_front_hand02_02 0.000000 0.000000 0.000000 0.000000 0.000000 0.000000 10.000000 
R_front_hand03_02 0.000000 0.000000 0.000000 0.000000 0.000000 0.000000 10.000000 
null_rope01_connect 0.000000 0.000000 0.000000 0.000000 0.000000 0.000000 10.000000 
Rope1_Seg01 0.000000 0.000000 0.000000 0.000000 0.000000 0.000000 10.000000 
Rope1_Seg02 0.000000 0.000000 0.000000 0.000000 0.000000 0.000000 10.000000 
Rope1_Seg03 0.000000 0.000000 0.000000 0.000000 0.000000 0.000000 10.000000 
Rope1_Seg04 0.000000 0.000000 0.000000 0.000000 0.000000 0.000000 10.000000 
Rope1_Seg05 0.000000 0.000000 0.000000 0.000000 0.000000 0.000000 10.000000 
Rope1_Seg06 0.000000 0.000000 0.000000 0.000000 0.000000 0.000000 10.000000 
Rope1_Seg07 0.000000 0.000000 0.000000 0.000000 0.000000 0.000000 10.000000 
Rope1_Seg09 0.000000 0.000000 0.000000 0.000000 0.000000 0.000000 10.000000 
L_mid_hand01 0.000000 0.000000 0.000000 0.000000 0.000000 0.000000 10.000000 
L_mid_hand02 0.000000 0.000000 0.000000 0.000000 0.000000 0.000000 10.000000 
L_mid_hand03 0.000000 0.000000 0.000000 0.000000 0.000000 0.000000 10.000000 
null_rope02_connect 0.000000 0.000000 0.000000 0.000000 0.000000 0.000000 10.000000 
Rope2_Seg01 0.000000 0.000000 0.000000 0.000000 0.000000 0.000000 10.000000 
Rope2_Seg02 0.000000 0.000000 0.000000 0.000000 0.000000 0.000000 10.000000 
Rope2_Seg03 0.000000 0.000000 0.000000 0.000000 0.000000 0.000000 10.000000 
Rope2_Seg04 0.000000 0.000000 0.000000 0.000000 0.000000 0.000000 10.000000 
Rope2_Seg05 0.000000 0.000000 0.000000 0.000000 0.000000 0.000000 10.000000 
Rope2_Seg06 0.000000 0.000000 0.000000 0.000000 0.000000 0.000000 10.000000 
Rope2_Seg07 0.000000 0.000000 0.000000 0.000000 0.000000 0.000000 10.000000 
Rope2_Seg09 0.000000 0.000000 0.000000 0.000000 0.000000 0.000000 10.000000 
R_mid_hand01 0.000000 0.000000 0.000000 0.000000 0.000000 0.000000 10.000000 
R_mid_hand02 0.000000 0.000000 0.000000 0.000000 0.000000 0.000000 10.000000 
R_mid_hand03 0.000000 0.000000 0.000000 0.000000 0.000000 0.000000 10.000000 
spine02 0.000000 0.000000 0.000000 0.000000 0.000000 0.000000 10.000000 
spine03 0.000000 0.000000 0.000000 0.000000 0.000000 0.000000 10.000000 
pelvis 0.000000 0.000000 0.000000 0.000000 0.000000 0.000000 10.000000 
null_rope03_connect 0.000000 0.000000 0.000000 0.000000 0.000000 0.000000 10.000000 
null_rope04_connect 0.000000 0.000000 0.000000 0.000000 0.000000 0.000000 10.000000 
Rope3_Seg01 0.000000 0.000000 0.000000 0.000000 0.000000 0.000000 10.000000 
Rope3_Seg02 0.000000 0.000000 0.000000 0.000000 0.000000 0.000000 10.000000 
Rope3_Seg03 0.000000 0.000000 0.000000 0.000000 0.000000 0.000000 10.000000 
Rope3_Seg04 0.000000 0.000000 0.000000 0.000000 0.000000 0.000000 10.000000 
Rope3_Seg05 0.000000 0.000000 0.000000 0.000000 0.000000 0.000000 10.000000 
Rope3_Seg06 0.000000 0.000000 0.000000 0.000000 0.000000 0.000000 10.000000 
Rope3_Seg07 0.000000 0.000000 0.000000 0.000000 0.000000 0.000000 10.000000 
Rope3_Seg08 0.000000 0.000000 0.000000 0.000000 0.000000 0.000000 10.000000 
Rope3_Seg09 0.000000 0.000000 0.000000 0.000000 0.000000 0.000000 10.000000 
R_rear_hand01 0.000000 0.000000 0.000000 0.000000 0.000000 0.000000 10.000000 
R_rear_hand02 0.000000 0.000000 0.000000 0.000000 0.000000 0.000000 10.000000 
R_rear_hand03 0.000000 0.000000 0.000000 0.000000 0.000000 0.000000 10.000000 
Rope4_Seg01 0.000000 0.000000 0.000000 0.000000 0.000000 0.000000 10.000000 
Rope4_Seg02 0.000000 0.000000 0.000000 0.000000 0.000000 0.000000 10.000000 
Rope4_Seg03 0.000000 0.000000 0.000000 0.000000 0.000000 0.000000 10.000000 
Rope4_Seg04 0.000000 0.000000 0.000000 0.000000 0.000000 0.000000 10.000000 
Rope4_Seg05 0.000000 0.000000 0.000000 0.000000 0.000000 0.000000 10.000000 
Rope4_Seg06 0.000000 0.000000 0.000000 0.000000 0.000000 0.000000 10.000000 
Rope4_Seg07 0.000000 0.000000 0.000000 0.000000 0.000000 0.000000 10.000000 
Rope4_Seg08 0.000000 0.000000 0.000000 0.000000 0.000000 0.000000 10.000000 
Rope4_Seg09 0.000000 0.000000 0.000000 0.000000 0.000000 0.000000 10.000000 
L_rear_hand01 0.000000 0.000000 0.000000 0.000000 0.000000 0.000000 10.000000 
L_rear_hand02 0.000000 0.000000 0.000000 0.000000 0.000000 0.000000 10.000000 
L_rear_hand03 0.000000 0.000000 0.000000 0.000000 0.000000 0.000000 10.000000 
#Beginning of Data. Separated by tabs
#Fr	Tx	Ty	Tz	Rx	Ry	Rz	SF
[MASTER]
15 -0.000194 1359.918457 4649.455566 0.001660 0.001660 0.001660 4844.255859
16 -0.000214 1491.026978 4892.330566 0.001660 0.001660 0.001660 5114.495117
[root]
15 -9.952696 -72.566216 1484.450684 -93.483574 -11.442509 -91.718201 1486.256592
16 -4.519866 -74.667053 1457.056885 -94.401489 -13.998503 -91.956932 1458.975708
[chest]
15 -84.512650 -34.090519 0.000000 5.901917 6.827080 -134.371948 91.129311
16 -84.512650 -34.090519 0.000000 6.317540 6.610423 -135.412155 91.129311
[L_mid_tent01]
15 27.299093 22.179224 -249.918701 0.520310 10.670815 70.509201 252.381699
16 27.299097 22.179232 -249.918701 0.688135 4.196842 71.327698 252.381699
[R_mid_tent01]
15 23.228794 24.509907 226.238495 168.622986 -18.794060 72.577217 228.744751
16 23.228794 24.509907 226.238495 168.641068 -18.718281 72.266510 228.744751
[spine01]
15 -0.361383 -0.195265 0.000000 0.001957 0.001296 22.977192 0.410763
16 -0.361383 -0.195265 0.000000 0.001957 0.001296 22.998638 0.410763
[Bip01_Neck]
15 165.484543 71.581718 0.000119 176.643677 -1.657967 43.431911 180.302734
16 165.484543 71.581718 0.000119 176.643677 -1.657967 43.431911 180.302734
[L_humerus]
15 -13.983130 -135.272980 -120.471481 145.860199 75.534096 -123.176643 181.680161
16 -13.983130 -135.272980 -120.471481 141.754150 76.866188 -127.426292 181.680161
[R_humerus]
15 -13.983309 -135.273102 125.287651 -167.978531 -74.034317 -97.439919 184.909012
16 -13.983309 -135.273102 125.287651 -166.952530 -75.223030 -98.514725 184.909012
[weapon_bone]
15 235.964890 -300.705902 0.000000 0.000000 -89.951546 -128.212341 382.234833
16 235.964890 -300.705902 0.000000 0.000000 -89.951546 -128.212341 382.234833
[Bip01_Head]
15 213.437500 185.735855 11.518784 4.967186 4.543053 -43.866879 283.171417
16 213.435349 185.741699 11.442833 4.968390 5.247278 -43.853752 283.170563
[eye_left_bone]
15 -24.626970 125.451866 -64.772606 0.000000 -90.000000 -99.840431 143.318359
16 -24.626970 125.451866 -64.772606 0.000000 -90.000000 -99.840431 143.318359
[eye_right_bone]
15 -24.626970 125.451866 64.327362 0.000000 -89.965736 80.156380 143.117676
16 -24.626970 125.451866 64.327362 0.000000 -89.980217 80.156387 143.117676
[L_forearm]
15 322.776093 0.000000 -0.000119 0.000123 -0.002344 -96.013916 322.776093
16 322.776093 0.000000 -0.000119 0.000126 -0.002344 -96.136917 322.776093
[L_front_hand]
15 241.149185 -0.042021 -3.300071 -178.260010 -1.837808 -27.425171 241.171753
16 241.149185 -0.042021 -3.300071 -178.062027 -1.835398 -27.423979 241.171753
[L_weapon_bone]
15 156.183838 0.000000 0.000000 0.000014 0.000007 0.000001 156.183838
16 156.183838 0.000000 0.000000 0.000014 0.000007 0.000001 156.183838
[L_front_hand01_01]
15 86.095154 20.947098 -0.655860 -0.279531 -0.529728 65.431473 88.609184
16 86.095154 20.947098 -0.655860 -0.273295 -0.533469 64.985298 88.609184
[L_front_hand02_01]
15 86.935165 -11.437475 24.513514 141.258118 -54.537659 -45.777599 91.046425
16 86.935165 -11.437475 24.513514 140.772385 -54.262844 -45.183468 91.046425
[L_front_hand03_01]
15 86.637497 -14.123976 -20.424902 -141.638611 52.767319 -47.837204 90.126129
16 86.637497 -14.123976 -20.424902 -141.183044 52.494118 -47.265888 90.126129
[L_front_hand01_02]
15 71.020905 -0.000179 0.000030 0.000315 -0.002326 -105.415054 71.020905
16 71.020905 -0.000179 0.000030 0.000315 -0.002326 -105.400543 71.020905
[L_front_hand02_02]
15 71.020927 -0.000119 0.000060 0.000315 -0.002326 -105.415054 71.020927
16 71.020927 -0.000119 0.000060 0.000315 -0.002326 -105.400543 71.020927
[L_front_hand03_02]
15 71.020905 -0.000060 0.000060 0.000315 -0.002326 -105.415054 71.020905
16 71.020905 -0.000060 0.000060 0.000315 -0.002326 -105.400543 71.020905
[R_forearm]
15 322.776428 -0.000060 0.000030 0.209480 0.012968 -94.547943 322.776428
16 322.776428 -0.000060 0.000030 0.209467 0.013177 -94.662338 322.776428
[R_front_hand]
15 238.847015 -0.006795 2.210259 -0.313366 -10.645811 -26.312696 238.857239
16 238.847015 -0.006795 2.210259 0.839753 -10.646885 -26.313660 238.857239
[R_weapon_bone]
15 155.664093 0.002503 -0.000030 0.003487 0.001180 -90.988930 155.664078
16 155.664093 0.002503 -0.000030 0.003487 0.001180 -90.988914 155.664078
[R_front_hand01_01]
15 87.624611 14.231146 22.918642 -140.102493 -53.853168 44.460335 91.683487
16 87.624611 14.231146 22.918642 -138.890259 -53.085796 42.950848 91.683487
[R_front_hand02_01]
15 89.356956 14.367283 -19.491137 140.872437 52.278004 47.106758 92.579636
16 89.356956 14.367283 -19.491137 139.720169 51.522045 45.641415 92.579636
[R_front_hand03_01]
15 87.286232 -22.307278 -0.143439 0.074609 -0.448192 -64.587509 90.091743
16 87.286232 -22.307278 -0.143439 0.065790 -0.451534 -63.409447 90.091743
[R_front_hand01_02]
15 71.020905 0.000060 0.000119 0.002323 -0.000334 106.381714 71.020905
16 71.020905 0.000060 0.000119 0.002323 -0.000334 106.381714 71.020905
[R_front_hand02_02]
15 71.020844 -0.000030 -0.000119 0.002323 -0.000334 106.381714 71.020836
16 71.020844 -0.000030 -0.000119 0.002323 -0.000334 106.381714 71.020836
[R_front_hand03_02]
15 71.020905 0.000000 0.000030 0.002323 -0.000334 106.381714 71.020905
16 71.020905 0.000000 0.000030 0.002323 -0.000334 106.381714 71.020905
[null_rope01_connect]
15 328.732483 0.000000 -0.000238 -145.894699 -75.138000 176.811234 328.732483
16 328.732483 0.000000 -0.000238 -141.720200 -80.533028 174.367752 328.732483
[Rope1_Seg01]
15 -0.000033 0.000028 0.000114 144.288971 39.273254 -167.308289 0.000122
16 -0.000033 0.000028 0.000111 147.100235 36.605801 -159.106934 0.000119
[Rope1_Seg02]
15 139.999863 -0.000179 0.000000 6.287385 -15.219278 4.179465 139.999863
16 139.999863 -0.000179 0.000000 8.157118 -16.717400 4.787267 139.999863
[Rope1_Seg03]
15 139.999924 0.000060 -0.000060 1.284576 -24.221958 12.159102 139.999924
16 139.999924 0.000060 -0.000060 0.597852 -26.940804 15.823117 139.999924
[Rope1_Seg04]
15 139.999924 -0.000060 -0.000119 -4.092530 -24.076700 15.706507 139.999924
16 139.999924 -0.000060 -0.000119 -4.294256 -22.937283 18.598185 139.999924
[Rope1_Seg05]
15 139.999832 0.000119 -0.000060 -8.321219 -21.952097 1.108187 139.999832
16 139.999832 0.000119 -0.000060 -6.808292 -18.593288 -1.227110 139.999832
[Rope1_Seg06]
15 139.999954 0.000119 -0.000060 -7.209558 -11.185476 -3.016445 139.999954
16 139.999954 0.000119 -0.000060 -7.626307 -12.343232 -7.040650 139.999954
[Rope1_Seg07]
15 139.999985 0.000060 0.000000 -3.572902 -4.988887 -1.145246 139.999985
16 139.999985 0.000060 0.000000 -3.775404 -5.788630 -2.607065 139.999985
[Rope1_Seg09]
15 121.602913 0.000119 -0.000089 -89.793175 -1.359789 0.847147 121.602913
16 121.602913 0.000119 -0.000089 -89.793175 -1.359789 0.847147 121.602913
[L_mid_hand01]
15 103.859421 1.038730 8.195221 109.301483 -41.408253 -13.576799 104.187431
16 103.859421 1.038730 8.195221 109.056198 -40.604698 -13.201401 104.187431
[L_mid_hand02]
15 105.572853 -4.139662 -10.864139 -147.153671 31.943630 -38.737034 106.211075
16 105.572853 -4.139662 -10.864139 -146.713593 31.476528 -37.902313 106.211075
[L_mid_hand03]
15 104.641464 17.579376 -3.913581 -14.087292 12.528420 44.741467 106.179977
16 104.641464 17.579376 -3.913581 -14.267233 12.322316 43.898396 106.179977
[null_rope02_connect]
15 328.732849 0.000179 -0.000119 -113.748138 71.821861 35.899689 328.732849
16 328.732849 0.000179 -0.000119 -108.397644 72.637146 38.541298 328.732849
[Rope2_Seg01]
15 0.000048 0.000114 0.000000 -138.830429 71.085182 -28.351652 0.000123
16 0.000049 0.000111 0.000000 -157.498627 68.152145 -43.959351 0.000121
[Rope2_Seg02]
15 139.999741 -0.000060 -0.000119 5.755759 -3.459156 -6.645885 139.999756
16 139.999741 -0.000060 -0.000119 9.438690 -3.343829 -10.026789 139.999756
[Rope2_Seg03]
15 140.000107 0.000030 0.000000 8.946116 -3.141915 -11.143692 140.000107
16 140.000107 0.000030 0.000000 14.440962 -2.122216 -15.549875 140.000107
[Rope2_Seg04]
15 139.999802 0.000000 -0.000060 15.798296 -0.215974 -19.418892 139.999802
16 139.999802 0.000000 -0.000060 17.111784 -2.712720 -16.755754 139.999802
[Rope2_Seg05]
15 139.999985 -0.000060 0.000119 -17.053976 -29.625479 38.787235 139.999985
16 139.999985 -0.000060 0.000119 -18.374702 -28.883289 39.683121 139.999985
[Rope2_Seg06]
15 139.999893 -0.000030 -0.000119 -0.542246 -25.488060 31.196428 139.999893
16 139.999893 -0.000030 -0.000119 -2.323056 -29.469841 35.613216 139.999893
[Rope2_Seg07]
15 139.999893 0.000060 -0.000060 2.994772 -5.553641 6.388212 139.999893
16 139.999893 0.000060 -0.000060 3.667836 -6.184423 7.003476 139.999893
[Rope2_Seg09]
15 121.338966 0.000089 -0.000060 33.793236 -1.359788 -0.847141 121.338966
16 121.338966 0.000089 -0.000060 33.793236 -1.359788 -0.847141 121.338966
[R_mid_hand01]
15 104.680779 11.144459 -10.335981 -31.399162 37.614391 47.725441 105.778534
16 104.680779 11.144459 -10.335981 -33.085678 36.191685 44.913235 105.778534
[R_mid_hand02]
15 104.070427 2.443552 8.231699 66.339699 -51.820030 19.540783 104.424065
16 104.070427 2.443552 8.231699 67.611237 -49.370296 17.897308 104.424065
[R_mid_hand03]
15 106.028137 -11.221827 -5.996406 -172.206848 13.802570 -57.446243 106.788818
16 106.028137 -11.221827 -5.996406 -171.571182 13.427420 -54.737041 106.788818
[spine02]
15 129.756927 0.001550 0.000119 -1.004081 -3.935106 6.472975 129.756927
16 129.756927 0.001550 0.000119 -0.993501 -3.936808 6.309063 129.756927
[spine03]
15 78.614021 0.081632 -4.898987 1.055293 4.144331 4.410993 78.766556
16 78.614021 0.081621 -4.898987 1.060997 4.143410 4.500338 78.766556
[pelvis]
15 169.435242 0.051022 0.000000 0.018891 -0.190297 -10.343970 169.435257
16 169.435242 0.051022 0.000000 0.018553 -0.190330 -10.140381 169.435257
[null_rope03_connect]
15 -1.257226 -2.466202 137.391083 -146.936157 -85.585358 -135.110962 137.418976
16 -1.257226 -2.466202 137.391083 -146.273178 -84.539436 -133.398102 137.418976
[null_rope04_connect]
15 -1.259640 -2.480268 -137.844437 -146.936157 -85.585358 -135.110962 137.872513
16 -1.259640 -2.480268 -137.844437 -146.273178 -84.539436 -133.398102 137.872513
[Rope3_Seg01]
15 0.000000 0.000000 0.000000 -129.371613 -48.835865 -86.823479 0.000000
16 0.000000 0.000000 0.000000 -126.599007 -51.052170 -90.806313 0.000000
[Rope3_Seg02]
15 139.999924 -0.000119 0.000060 -2.205753 -3.467327 -22.450016 139.999924
16 139.999924 -0.000119 0.000060 -1.173929 -6.050548 -24.258644 139.999924
[Rope3_Seg03]
15 139.999924 -0.000119 0.000119 -11.914906 -1.361935 -26.394356 139.999924
16 139.999924 -0.000119 0.000119 -10.014761 -4.925389 -27.106697 139.999924
[Rope3_Seg04]
15 139.999924 0.000119 0.000000 -23.843094 6.179070 -18.098215 139.999924
16 139.999924 0.000119 0.000000 -21.780298 1.226860 -17.438665 139.999924
[Rope3_Seg05]
15 139.999924 -0.000238 0.000060 -13.963123 0.935701 -10.896635 139.999924
16 139.999924 -0.000238 0.000060 -18.505301 1.847225 -9.329337 139.999924
[Rope3_Seg06]
15 139.999893 -0.000119 -0.000060 -15.592405 -2.487116 -11.687944 139.999893
16 139.999893 -0.000119 -0.000060 -21.739723 1.840044 -8.003014 139.999893
[Rope3_Seg07]
15 139.999771 0.000060 -0.000119 -35.438427 0.508558 -9.120954 139.999771
16 139.999771 0.000060 -0.000119 -26.831152 3.973624 -5.953950 139.999771
[Rope3_Seg08]
15 139.999985 -0.000060 0.000000 -26.723072 3.445515 -2.973278 139.999985
16 139.999985 -0.000060 0.000000 -15.122978 4.058668 -1.695506 139.999985
[Rope3_Seg09]
15 90.185997 -0.000179 -0.000060 89.793228 -1.359877 -0.847183 90.185997
16 90.185997 -0.000179 -0.000060 89.793228 -1.359877 -0.847183 90.185997
[R_rear_hand01]
15 103.366196 -6.073594 -10.757982 -168.130341 21.777140 -49.871906 104.101845
16 103.366196 -6.073594 -10.757982 -167.001480 21.149061 -46.791374 104.101845
[R_rear_hand02]
15 100.509819 12.039542 -7.992327 -26.694445 29.195726 47.151855 101.543350
16 100.509819 12.039542 -7.992327 -28.108641 27.848612 44.189137 101.543350
[R_rear_hand03]
15 101.539970 5.215704 5.435467 81.113556 -50.109848 10.702383 101.819031
16 101.539970 5.215704 5.435467 81.609138 -47.214466 10.038949 101.819031
[Rope4_Seg01]
15 0.000010 0.000028 -0.000114 68.720238 -39.033264 -129.133606 0.000118
16 0.000010 0.000028 -0.000111 65.636360 -40.301697 -123.282661 0.000115
[Rope4_Seg02]
15 139.999985 0.000060 0.000119 6.174116 -20.137451 -3.615931 139.999985
16 139.999985 0.000060 0.000119 7.097269 -23.132048 -3.167108 139.999985
[Rope4_Seg03]
15 139.999924 0.000000 -0.000238 13.807487 -20.421017 -4.045627 139.999924
16 139.999924 0.000000 -0.000238 15.278331 -21.844728 -3.542721 139.999924
[Rope4_Seg04]
15 139.999985 0.000000 0.000119 -1.933274 -11.642338 -5.869915 139.999985
16 139.999985 0.000000 0.000119 7.259148 -10.855927 -3.725858 139.999985
[Rope4_Seg05]
15 139.999802 -0.000060 -0.000119 81.795563 -8.708522 4.486141 139.999802
16 139.999802 -0.000060 -0.000119 59.217400 -8.020899 7.672661 139.999802
[Rope4_Seg06]
15 139.999924 0.000000 0.000060 25.537500 24.255875 29.960571 139.999924
16 139.999924 0.000000 0.000060 33.183716 18.924776 36.923313 139.999924
[Rope4_Seg07]
15 139.999802 0.000000 0.000000 11.192738 41.125992 26.918142 139.999802
16 139.999802 0.000000 0.000000 10.290922 34.564518 26.334679 139.999802
[Rope4_Seg08]
15 139.999924 0.000000 0.000119 -1.124502 9.805909 5.755441 139.999924
16 139.999924 0.000000 0.000119 -1.251535 8.706800 5.911090 139.999924
[Rope4_Seg09]
15 90.185791 0.000060 0.000060 -135.617828 2.228885 0.850567 90.185791
16 90.185791 0.000060 0.000060 -135.617828 2.228885 0.850567 90.185791
[L_rear_hand01]
15 101.696655 -8.392275 -7.654577 -31.194277 -24.256094 142.819397 102.329041
16 101.696655 -8.392275 -7.654577 -30.608620 -25.023813 141.417831 102.329041
[L_rear_hand02]
15 102.726799 -1.568258 5.773216 82.562164 40.032185 171.334641 102.900848
16 102.726799 -1.568258 5.773216 82.398407 41.509426 171.081650 102.900848
[L_rear_hand03]
15 104.552910 9.721220 -10.420293 -164.408707 -19.357925 -140.691956 105.519653
16 104.552910 9.721220 -10.420293 -164.917755 -19.749290 -139.167572 105.519653
